<?xml version="1.0" encoding="UTF-8" standalone="no"?>
<svg
   width="176"
   height="32"
   viewBox="0 0 176 32"
   fill="none"
   version="1.1"
   id="svg19"
   sodipodi:docname="logo-dark.svg"
   inkscape:version="1.3.2 (091e20e, 2023-11-25, custom)"
   xmlns:inkscape="http://www.inkscape.org/namespaces/inkscape"
   xmlns:sodipodi="http://sodipodi.sourceforge.net/DTD/sodipodi-0.dtd"
   xmlns="http://www.w3.org/2000/svg"
   xmlns:svg="http://www.w3.org/2000/svg">
  <sodipodi:namedview
     id="namedview19"
     pagecolor="#ffffff"
     bordercolor="#999999"
     borderopacity="1"
     inkscape:showpageshadow="2"
     inkscape:pageopacity="0"
     inkscape:pagecheckerboard="0"
     inkscape:deskcolor="#d1d1d1"
     inkscape:zoom="4.6761364"
     inkscape:cx="88"
     inkscape:cy="15.931956"
     inkscape:window-width="1366"
     inkscape:window-height="745"
     inkscape:window-x="-8"
     inkscape:window-y="-8"
     inkscape:window-maximized="1"
     inkscape:current-layer="svg19" />
  <path
     d="m 44,9.17592 h 6.2773 V 27.1572 H 54.032 V 9.17592 h 6.2773 V 5.71459 H 44 Z"
     fill="#1c2434"
     id="path1"
     style="display:none" />
  <path
     d="m 64.4999,27.5386 c 2.2586,0 4.224,-1.0267 4.84,-2.5227 l 0.264,2.1413 h 3.1386 v -8.8 c 0,-4.0186 -2.4053,-6.1306 -6.3066,-6.1306 -3.9307,0 -6.512,2.0533 -6.512,5.192 h 3.0506 c 0,-1.5253 1.1734,-2.4053 3.2854,-2.4053 1.8186,0 2.992,0.792 2.992,2.7573 v 0.3226 l -4.3414,0.3227 c -3.432,0.264 -5.368,1.936 -5.368,4.6054 0,2.7279 1.8774,4.5173 4.9574,4.5173 z m 1.1733,-2.6987 c -1.6133,0 -2.4933,-0.6453 -2.4933,-1.9653 0,-1.1734 0.8506,-1.9067 3.08,-2.112 l 3.0213,-0.2347 v 0.7627 c 0,2.2293 -1.408,3.5493 -3.608,3.5493 z"
     fill="#1c2434"
     id="path2"
     style="display:none" />
  <path
     d="m 78.0475,9.76258 c 1.1734,0 2.1414,-0.968 2.1414,-2.17066 0,-1.20267 -0.968,-2.14133 -2.1414,-2.14133 -1.232,0 -2.2,0.93866 -2.2,2.14133 0,1.20266 0.968,2.17066 2.2,2.17066 z M 76.2582,27.1572 h 3.5787 V 12.6666 h -3.5787 z"
     fill="#1c2434"
     id="path3"
     style="display:none" />
  <path
     d="M 87.1422,27.1572 V 5.33325 H 83.5929 V 27.1572 Z"
     fill="#1c2434"
     id="path4"
     style="display:none" />
  <path
     d="m 93.2722,27.1572 1.7307,-4.9573 h 8.0081 l 1.731,4.9573 h 3.96 L 100.958,5.71459 h -3.8431 l -7.744,21.44261 z m 5.28,-15.0479 c 0.2054,-0.5867 0.3813,-1.232 0.4693,-1.6427 0.0587,0.44 0.264,1.0853 0.44,1.6427 l 2.4645,6.9226 h -5.8085 z"
     fill="#1c2434"
     id="path5"
     style="display:none" />
  <path
     d="m 116.158,27.5386 c 2.2,0 4.078,-0.968 4.958,-2.64 l 0.234,2.2586 h 3.286 V 5.33325 h -3.55 v 9.18135 c -0.909,-1.4373 -2.698,-2.288 -4.722,-2.288 -4.371,0 -7.011,3.2267 -7.011,7.744 0,4.488 2.611,7.568 6.805,7.568 z m 0.792,-3.2854 c -2.493,0 -4.018,-1.8186 -4.018,-4.3999 0,-2.5814 1.525,-4.4294 4.018,-4.4294 2.494,0 4.107,1.8187 4.107,4.4294 0,2.6106 -1.613,4.3999 -4.107,4.3999 z"
     fill="#1c2434"
     id="path6"
     style="display:none" />
  <path
     d="m 131.944,27.1572 v -8.2133 c 0,-2.3466 1.378,-3.4613 3.08,-3.4613 1.701,0 2.786,1.0853 2.786,3.1093 v 8.5653 h 3.579 v -8.2133 c 0,-2.376 1.32,-3.4906 3.051,-3.4906 1.701,0 2.816,1.0853 2.816,3.168 v 8.5359 h 3.549 v -9.4746 c 0,-3.344 -1.936,-5.456 -5.456,-5.456 -2.2,0 -3.901,1.0853 -4.635,2.7573 -0.762,-1.672 -2.288,-2.7573 -4.488,-2.7573 -2.082,0 -3.549,0.9387 -4.282,2.1413 l -0.294,-1.7013 h -3.285 v 14.4906 z"
     fill="#1c2434"
     id="path7"
     style="display:none" />
  <path
     d="m 156.107,9.76258 c 1.174,0 2.142,-0.968 2.142,-2.17066 0,-1.20267 -0.968,-2.14133 -2.142,-2.14133 -1.232,0 -2.2,0.93866 -2.2,2.14133 0,1.20266 0.968,2.17066 2.2,2.17066 z m -1.789,17.39462 h 3.579 V 12.6666 h -3.579 z"
     fill="#1c2434"
     id="path8"
     style="display:none" />
  <path
     d="m 165.173,27.1572 v -7.8026 c 0,-2.3467 1.349,-3.872 3.549,-3.872 1.848,0 3.051,1.1733 3.051,3.608 v 8.0666 h 3.578 v -8.9173 c 0,-3.7546 -1.877,-6.0133 -5.514,-6.0133 -1.966,0 -3.726,0.8507 -4.635,2.3173 l -0.293,-1.8773 h -3.315 v 14.4906 z"
     fill="#1c2434"
     id="path9"
     style="display:none" />
  <path
     d="M0 8.42105C0 3.77023 3.77023 0 8.42105 0H23.5789C28.2298 0 32 3.77023 32 8.42105V23.5789C32 28.2298 28.2298 32 23.5789 32H8.42105C3.77023 32 0 28.2298 0 23.5789V8.42105Z"
     fill="#3C50E0"
     id="path10"
     style="fill:#ff6600" />
  <text
     xml:space="preserve"
     style="font-style:normal;font-variant:normal;font-weight:normal;font-stretch:normal;font-size:16.2771px;font-family:sans-serif;-inkscape-font-specification:sans-serif;word-spacing:0px;fill:#0b1728;stroke-width:0.942222"
     x="68.027893"
     y="9.1549492"
     id="text19"
     transform="scale(1.0000551,0.99994491)"
     inkscape:label="text19"><tspan
       sodipodi:role="line"
       id="tspan19"
       x="68.027893"
       y="9.1549492"
       style="font-style:normal;font-variant:normal;font-weight:bold;font-stretch:normal;font-size:16.2771px;font-family:Arial;-inkscape-font-specification:'Arial Bold';text-align:center;letter-spacing:0.939067px;word-spacing:-3.75627px;text-anchor:middle;display:inline;fill:#0b1728;stroke-width:0.942222"
       dy="4.6953344">Centro</tspan><tspan
       sodipodi:role="line"
       x="68.027893"
       y="29.689745"
       style="font-style:normal;font-variant:normal;font-weight:bold;font-stretch:normal;font-size:16.2771px;font-family:Arial;-inkscape-font-specification:'Arial Bold';text-align:center;letter-spacing:0px;word-spacing:-3.75627px;text-anchor:middle;display:inline;fill:#0b1728;stroke-width:0.942222"
       id="tspan20"> Médico</tspan></text>
  <text
     xml:space="preserve"
     style="font-style:normal;font-variant:normal;font-weight:bold;font-stretch:normal;font-size:35.8804px;font-family:Arial;-inkscape-font-specification:'Arial Bold';text-align:center;letter-spacing:0.961082px;word-spacing:-3.84433px;text-anchor:middle;display:inline;fill:#0b1728;stroke-width:0.961082"
     x="138.79854"
     y="29.064785"
     id="text22"
     transform="scale(0.99976455,1.0002355)"><tspan
       sodipodi:role="line"
       id="tspan22"
       x="139.27908"
       y="29.064785"
       style="font-size:35.8804px;fill:#0b1728;stroke-width:0.961082">ZOE</tspan></text>
  <g
     filter="url(#filter0_d_521_14075)"
     id="g11">
    <path
       d="M8.42139 8.42127C8.42139 7.49111 9.17543 6.73706 10.1056 6.73706V6.73706C11.0358 6.73706 11.7898 7.49111 11.7898 8.42127V23.5792C11.7898 24.5093 11.0358 25.2634 10.1056 25.2634V25.2634C9.17543 25.2634 8.42139 24.5093 8.42139 23.5792V8.42127Z"
       fill="white"
       id="path11" />
  </g>
  <g
     opacity="0.9"
     filter="url(#filter1_d_521_14075)"
     id="g12">
    <path
       d="M14.7368 15.1576C14.7368 14.2274 15.4909 13.4734 16.421 13.4734V13.4734C17.3512 13.4734 18.1052 14.2274 18.1052 15.1576V23.5786C18.1052 24.5088 17.3512 25.2629 16.421 25.2629V25.2629C15.4909 25.2629 14.7368 24.5088 14.7368 23.5786V15.1576Z"
       fill="white"
       id="path12" />
  </g>
  <g
     opacity="0.7"
     filter="url(#filter2_d_521_14075)"
     id="g13">
    <path
       d="M21.0522 10.9469C21.0522 10.0167 21.8063 9.2627 22.7365 9.2627V9.2627C23.6666 9.2627 24.4207 10.0167 24.4207 10.9469V23.5785C24.4207 24.5086 23.6666 25.2627 22.7365 25.2627V25.2627C21.8063 25.2627 21.0522 24.5086 21.0522 23.5785V10.9469Z"
       fill="white"
       id="path13" />
  </g>
  <defs
     id="defs19">
    <filter
       id="filter0_d_521_14075"
       x="7.42139"
       y="6.23706"
       width="5.36865"
       height="20.5264"
       filterUnits="userSpaceOnUse"
       color-interpolation-filters="sRGB">
      <feFlood
         flood-opacity="0"
         result="BackgroundImageFix"
         id="feFlood13" />
      <feColorMatrix
         in="SourceAlpha"
         type="matrix"
         values="0 0 0 0 0 0 0 0 0 0 0 0 0 0 0 0 0 0 127 0"
         result="hardAlpha"
         id="feColorMatrix13" />
      <feOffset
         dy="0.5"
         id="feOffset13" />
      <feGaussianBlur
         stdDeviation="0.5"
         id="feGaussianBlur13" />
      <feComposite
         in2="hardAlpha"
         operator="out"
         id="feComposite13" />
      <feColorMatrix
         type="matrix"
         values="0 0 0 0 0 0 0 0 0 0 0 0 0 0 0 0 0 0 0.12 0"
         id="feColorMatrix14" />
      <feBlend
         mode="normal"
         in2="BackgroundImageFix"
         result="effect1_dropShadow_521_14075"
         id="feBlend14" />
      <feBlend
         mode="normal"
         in="SourceGraphic"
         in2="effect1_dropShadow_521_14075"
         result="shape"
         id="feBlend15" />
    </filter>
    <filter
       id="filter1_d_521_14075"
       x="13.7368"
       y="12.9734"
       width="5.36865"
       height="13.7896"
       filterUnits="userSpaceOnUse"
       color-interpolation-filters="sRGB">
      <feFlood
         flood-opacity="0"
         result="BackgroundImageFix"
         id="feFlood15" />
      <feColorMatrix
         in="SourceAlpha"
         type="matrix"
         values="0 0 0 0 0 0 0 0 0 0 0 0 0 0 0 0 0 0 127 0"
         result="hardAlpha"
         id="feColorMatrix15" />
      <feOffset
         dy="0.5"
         id="feOffset15" />
      <feGaussianBlur
         stdDeviation="0.5"
         id="feGaussianBlur15" />
      <feComposite
         in2="hardAlpha"
         operator="out"
         id="feComposite15" />
      <feColorMatrix
         type="matrix"
         values="0 0 0 0 0 0 0 0 0 0 0 0 0 0 0 0 0 0 0.12 0"
         id="feColorMatrix16" />
      <feBlend
         mode="normal"
         in2="BackgroundImageFix"
         result="effect1_dropShadow_521_14075"
         id="feBlend16" />
      <feBlend
         mode="normal"
         in="SourceGraphic"
         in2="effect1_dropShadow_521_14075"
         result="shape"
         id="feBlend17" />
    </filter>
    <filter
       id="filter2_d_521_14075"
       x="20.0522"
       y="8.7627"
       width="5.36865"
       height="18"
       filterUnits="userSpaceOnUse"
       color-interpolation-filters="sRGB">
      <feFlood
         flood-opacity="0"
         result="BackgroundImageFix"
         id="feFlood17" />
      <feColorMatrix
         in="SourceAlpha"
         type="matrix"
         values="0 0 0 0 0 0 0 0 0 0 0 0 0 0 0 0 0 0 127 0"
         result="hardAlpha"
         id="feColorMatrix17" />
      <feOffset
         dy="0.5"
         id="feOffset17" />
      <feGaussianBlur
         stdDeviation="0.5"
         id="feGaussianBlur17" />
      <feComposite
         in2="hardAlpha"
         operator="out"
         id="feComposite17" />
      <feColorMatrix
         type="matrix"
         values="0 0 0 0 0 0 0 0 0 0 0 0 0 0 0 0 0 0 0.12 0"
         id="feColorMatrix18" />
      <feBlend
         mode="normal"
         in2="BackgroundImageFix"
         result="effect1_dropShadow_521_14075"
         id="feBlend18" />
      <feBlend
         mode="normal"
         in="SourceGraphic"
         in2="effect1_dropShadow_521_14075"
         result="shape"
         id="feBlend19" />
    </filter>
  </defs>
</svg>
